<svg xmlns="http://www.w3.org/2000/svg" width="540" height="150" viewBox="0 0 540 150" role="img" aria-label="BrainCanvas — Whiteboard with a voice-driven AI teammate."><title>BrainCanvas — Whiteboard with a voice-driven AI teammate.</title><style>.s{font-family:-apple-system,BlinkMacSystemFont,'Segoe UI','Noto Sans',Helvetica,Arial,sans-serif}.m{font-family:ui-monospace,SFMono-Regular,'SF Mono',Menlo,Consolas,'Liberation Mono',monospace}@media (prefers-reduced-motion:reduce){*{animation:none!important}}</style><defs><radialGradient id="glow"><stop offset="0" stop-color="#818cf8" stop-opacity="0.16"/><stop offset="1" stop-color="#818cf8" stop-opacity="0"/></radialGradient><clipPath id="clip"><rect x="6" y="6" width="528" height="138" rx="18"/></clipPath></defs><rect x="6" y="6" width="528" height="138" rx="18" fill="#161b22"/><g clip-path="url(#clip)"><circle cx="534" cy="6" r="150" fill="url(#glow)"/></g><rect x="6" y="6" width="528" height="138" rx="18" fill="none" stroke="#30363d" stroke-width="1.5"/><rect x="28" y="28" width="46" height="46" rx="14" fill="#818cf8" fill-opacity="0.12" stroke="#818cf8" stroke-opacity="0.35" stroke-width="1.5"/><g transform="translate(39 39) scale(1.0000)" fill="none" stroke="#818cf8" stroke-width="2" stroke-linecap="round" stroke-linejoin="round"><path d="M15.707 21.293a1 1 0 0 1-1.414 0l-1.586-1.586a1 1 0 0 1 0-1.414l5.586-5.586a1 1 0 0 1 1.414 0l1.586 1.586a1 1 0 0 1 0 1.414z" />
  <path d="m18 13-1.375-6.874a1 1 0 0 0-.746-.776L3.235 2.028a1 1 0 0 0-1.207 1.207L5.35 15.879a1 1 0 0 0 .776.746L13 18" />
  <path d="m2.3 2.3 7.286 7.286" />
  <circle cx="11" cy="11" r="2" /></g><g transform="translate(490 30) scale(0.8333)" fill="none" stroke="#8b949e" stroke-width="2" stroke-linecap="round" stroke-linejoin="round"><path d="M7 7h10v10" />
  <path d="M7 17 17 7" /></g><text x="92" y="48" class="m" font-size="15" fill="#818cf8" letter-spacing="1.2">REALTIME · REACT · YJS</text><text x="92" y="76" class="s" font-size="24" fill="#e6edf3" font-weight="700">BrainCanvas</text><text x="28" y="118" class="s" font-size="19" fill="#9198a1">Whiteboard with a voice-driven AI teammate.</text></svg>
